<mxfile host="app.diagrams.net" modified="2021-10-30T13:46:50.212Z" agent="5.0 (Macintosh; Intel Mac OS X 10_15_7) AppleWebKit/537.36 (KHTML, like Gecko) Chrome/95.0.4638.54 Safari/537.36" etag="UZMfZs3PRAxcuQIdQjL_" version="15.6.2" type="github">
  <diagram name="Page-1" id="9f46799a-70d6-7492-0946-bef42562c5a5">
    <mxGraphModel dx="1402" dy="1161" grid="1" gridSize="10" guides="1" tooltips="1" connect="1" arrows="1" fold="1" page="1" pageScale="1" pageWidth="291" pageHeight="413" background="none" math="0" shadow="0">
      <root>
        <mxCell id="0" />
        <mxCell id="1" parent="0" />
        <mxCell id="UNWeFBYL9hzPUu6WqC25-1" value="Push Service" style="swimlane;fontStyle=0;childLayout=stackLayout;horizontal=1;startSize=30;horizontalStack=0;resizeParent=1;resizeParentMax=0;resizeLast=0;collapsible=1;marginBottom=0;" vertex="1" parent="1">
          <mxGeometry x="720" y="240" width="140" height="60" as="geometry" />
        </mxCell>
        <mxCell id="UNWeFBYL9hzPUu6WqC25-5" value="Notification Service" style="swimlane;fontStyle=0;childLayout=stackLayout;horizontal=1;startSize=30;horizontalStack=0;resizeParent=1;resizeParentMax=0;resizeLast=0;collapsible=1;marginBottom=0;" vertex="1" parent="1">
          <mxGeometry x="40" y="240" width="430" height="60" as="geometry" />
        </mxCell>
        <mxCell id="UNWeFBYL9hzPUu6WqC25-9" value="Watchlist Service" style="swimlane;fontStyle=0;childLayout=stackLayout;horizontal=1;startSize=30;horizontalStack=0;resizeParent=1;resizeParentMax=0;resizeLast=0;collapsible=1;marginBottom=0;" vertex="1" parent="1">
          <mxGeometry x="40" y="490" width="140" height="60" as="geometry" />
        </mxCell>
        <mxCell id="UNWeFBYL9hzPUu6WqC25-13" value="Asset Service" style="swimlane;fontStyle=0;childLayout=stackLayout;horizontal=1;startSize=30;horizontalStack=0;resizeParent=1;resizeParentMax=0;resizeLast=0;collapsible=1;marginBottom=0;" vertex="1" parent="1">
          <mxGeometry x="490" y="490" width="140" height="60" as="geometry" />
        </mxCell>
        <mxCell id="UNWeFBYL9hzPUu6WqC25-17" value="MIP" style="swimlane;fontStyle=0;childLayout=stackLayout;horizontal=1;startSize=30;horizontalStack=0;resizeParent=1;resizeParentMax=0;resizeLast=0;collapsible=1;marginBottom=0;" vertex="1" parent="1">
          <mxGeometry x="730" y="490" width="140" height="60" as="geometry" />
        </mxCell>
        <mxCell id="UNWeFBYL9hzPUu6WqC25-26" value="Frontend" style="swimlane;" vertex="1" parent="1">
          <mxGeometry x="40" y="10" width="1040" height="20" as="geometry" />
        </mxCell>
        <mxCell id="UNWeFBYL9hzPUu6WqC25-27" value="" style="shape=link;html=1;rounded=0;width=72;" edge="1" parent="1">
          <mxGeometry width="100" relative="1" as="geometry">
            <mxPoint x="40" y="690" as="sourcePoint" />
            <mxPoint x="930" y="690" as="targetPoint" />
          </mxGeometry>
        </mxCell>
        <mxCell id="UNWeFBYL9hzPUu6WqC25-28" value="Rabbit MQ Bus" style="text;html=1;align=center;verticalAlign=middle;resizable=0;points=[];autosize=1;strokeColor=none;fillColor=none;" vertex="1" parent="1">
          <mxGeometry x="510" y="680" width="100" height="20" as="geometry" />
        </mxCell>
        <mxCell id="UNWeFBYL9hzPUu6WqC25-37" value="" style="endArrow=classic;html=1;rounded=0;entryX=0.5;entryY=0;entryDx=0;entryDy=0;exitX=0.724;exitY=1.05;exitDx=0;exitDy=0;exitPerimeter=0;" edge="1" parent="1" source="UNWeFBYL9hzPUu6WqC25-26" target="UNWeFBYL9hzPUu6WqC25-1">
          <mxGeometry relative="1" as="geometry">
            <mxPoint x="740" y="110" as="sourcePoint" />
            <mxPoint x="840" y="110" as="targetPoint" />
          </mxGeometry>
        </mxCell>
        <mxCell id="UNWeFBYL9hzPUu6WqC25-38" value="SUBSCRIBE&amp;nbsp; /topics/notifications" style="edgeLabel;resizable=0;html=1;align=center;verticalAlign=middle;" connectable="0" vertex="1" parent="UNWeFBYL9hzPUu6WqC25-37">
          <mxGeometry relative="1" as="geometry" />
        </mxCell>
        <mxCell id="UNWeFBYL9hzPUu6WqC25-39" value="" style="endArrow=classic;html=1;rounded=0;entryX=0.5;entryY=0;entryDx=0;entryDy=0;exitX=0.205;exitY=1.1;exitDx=0;exitDy=0;exitPerimeter=0;" edge="1" parent="1" source="UNWeFBYL9hzPUu6WqC25-26" target="UNWeFBYL9hzPUu6WqC25-5">
          <mxGeometry relative="1" as="geometry">
            <mxPoint x="190" y="70" as="sourcePoint" />
            <mxPoint x="290" y="70" as="targetPoint" />
          </mxGeometry>
        </mxCell>
        <mxCell id="UNWeFBYL9hzPUu6WqC25-40" value="GET /user/:userId/notifications" style="edgeLabel;resizable=0;html=1;align=center;verticalAlign=middle;" connectable="0" vertex="1" parent="UNWeFBYL9hzPUu6WqC25-39">
          <mxGeometry relative="1" as="geometry" />
        </mxCell>
        <mxCell id="UNWeFBYL9hzPUu6WqC25-41" value="" style="endArrow=classic;html=1;rounded=0;" edge="1" parent="1">
          <mxGeometry relative="1" as="geometry">
            <mxPoint x="80" y="550" as="sourcePoint" />
            <mxPoint x="80" y="660" as="targetPoint" />
          </mxGeometry>
        </mxCell>
        <mxCell id="UNWeFBYL9hzPUu6WqC25-42" value="SUBSCRIBE to /mip/assets/events" style="edgeLabel;resizable=0;html=1;align=center;verticalAlign=middle;" connectable="0" vertex="1" parent="UNWeFBYL9hzPUu6WqC25-41">
          <mxGeometry relative="1" as="geometry">
            <mxPoint x="40" as="offset" />
          </mxGeometry>
        </mxCell>
        <mxCell id="UNWeFBYL9hzPUu6WqC25-43" value="" style="endArrow=classic;html=1;rounded=0;entryX=0;entryY=0.5;entryDx=0;entryDy=0;" edge="1" parent="1" target="UNWeFBYL9hzPUu6WqC25-13">
          <mxGeometry relative="1" as="geometry">
            <mxPoint x="180" y="519.5" as="sourcePoint" />
            <mxPoint x="280" y="519.5" as="targetPoint" />
            <Array as="points" />
          </mxGeometry>
        </mxCell>
        <mxCell id="UNWeFBYL9hzPUu6WqC25-44" value="GET /portfolios" style="edgeLabel;resizable=0;html=1;align=center;verticalAlign=middle;" connectable="0" vertex="1" parent="UNWeFBYL9hzPUu6WqC25-43">
          <mxGeometry relative="1" as="geometry" />
        </mxCell>
        <mxCell id="UNWeFBYL9hzPUu6WqC25-45" value="" style="endArrow=classic;html=1;rounded=0;" edge="1" parent="1">
          <mxGeometry relative="1" as="geometry">
            <mxPoint x="792" y="550" as="sourcePoint" />
            <mxPoint x="792" y="650" as="targetPoint" />
          </mxGeometry>
        </mxCell>
        <mxCell id="UNWeFBYL9hzPUu6WqC25-46" value="PUBLISH /mip/assets/events&amp;nbsp;" style="edgeLabel;resizable=0;html=1;align=center;verticalAlign=middle;" connectable="0" vertex="1" parent="UNWeFBYL9hzPUu6WqC25-45">
          <mxGeometry relative="1" as="geometry" />
        </mxCell>
        <mxCell id="UNWeFBYL9hzPUu6WqC25-48" value="" style="endArrow=classic;html=1;rounded=0;entryX=0;entryY=0.5;entryDx=0;entryDy=0;" edge="1" parent="1" target="UNWeFBYL9hzPUu6WqC25-1">
          <mxGeometry relative="1" as="geometry">
            <mxPoint x="470" y="269.5" as="sourcePoint" />
            <mxPoint x="570" y="269.5" as="targetPoint" />
          </mxGeometry>
        </mxCell>
        <mxCell id="UNWeFBYL9hzPUu6WqC25-49" value="POST&amp;nbsp; /pushes" style="edgeLabel;resizable=0;html=1;align=center;verticalAlign=middle;" connectable="0" vertex="1" parent="UNWeFBYL9hzPUu6WqC25-48">
          <mxGeometry relative="1" as="geometry" />
        </mxCell>
        <mxCell id="UNWeFBYL9hzPUu6WqC25-50" value="" style="endArrow=classic;html=1;rounded=0;exitX=0.336;exitY=-0.05;exitDx=0;exitDy=0;exitPerimeter=0;" edge="1" parent="1" source="UNWeFBYL9hzPUu6WqC25-9">
          <mxGeometry relative="1" as="geometry">
            <mxPoint x="90" y="480" as="sourcePoint" />
            <mxPoint x="90" y="300" as="targetPoint" />
          </mxGeometry>
        </mxCell>
        <mxCell id="UNWeFBYL9hzPUu6WqC25-51" value="POST /notifications" style="edgeLabel;resizable=0;html=1;align=center;verticalAlign=middle;" connectable="0" vertex="1" parent="UNWeFBYL9hzPUu6WqC25-50">
          <mxGeometry relative="1" as="geometry" />
        </mxCell>
      </root>
    </mxGraphModel>
  </diagram>
</mxfile>
